HIERARCHY
ROOT Hips
{
  OFFSET 90.7885 88.945 -76.2838
  CHANNELS 6 Xposition Yposition Zposition Zrotation Xrotation Yrotation
  JOINT LeftUpLeg
  {
    OFFSET 8.64259 1.95398 -2.38835
    CHANNELS 3 Zrotation Xrotation Yrotation
    JOINT LeftLeg
    {
      OFFSET 43.7702 0 0
      CHANNELS 3 Zrotation Xrotation Yrotation
      JOINT LeftFoot
      {
        OFFSET 40.6238 0 0
        CHANNELS 3 Zrotation Xrotation Yrotation
        JOINT LeftToeBase
        {
          OFFSET 12.7242 0 0
          CHANNELS 3 Zrotation Xrotation Yrotation
          End Site
          {
            OFFSET 0 0 0
          }
        }
      }
    }
  }
  JOINT RightUpLeg
  {
    OFFSET -8.2249 1.95398 -2.59336
    CHANNELS 3 Zrotation Xrotation Yrotation
    JOINT RightLeg
    {
      OFFSET 43.5653 0 0
      CHANNELS 3 Zrotation Xrotation Yrotation
      JOINT RightFoot
      {
        OFFSET 40.6238 0 0
        CHANNELS 3 Zrotation Xrotation Yrotation
        JOINT RightToeBase
        {
          OFFSET 12.7242 0 0
          CHANNELS 3 Zrotation Xrotation Yrotation
          End Site
          {
            OFFSET 0 0 0
          }
        }
      }
    }
  }
  JOINT Spine
  {
    OFFSET 0.165834 0.87714 6.61349
    CHANNELS 3 Zrotation Xrotation Yrotation
    JOINT Spine1
    {
      OFFSET 7.38963 1.71661e-005 0
      CHANNELS 3 Zrotation Xrotation Yrotation
      JOINT Spine2
      {
        OFFSET 11.9445 1.14441e-005 0
        CHANNELS 3 Zrotation Xrotation Yrotation
        JOINT Spine3
        {
          OFFSET 14.7254 4.19617e-005 0
          CHANNELS 3 Zrotation Xrotation Yrotation
          JOINT Spine4
          {
            OFFSET 10.9679 0 0
            CHANNELS 3 Zrotation Xrotation Yrotation
            JOINT RightShoulder
            {
              OFFSET 2.46616 -1.6653 3.69651
              CHANNELS 3 Zrotation Xrotation Yrotation
              JOINT RightArm
              {
                OFFSET 13.0012 0 0
                CHANNELS 3 Zrotation Xrotation Yrotation
                JOINT RightForeArm
                {
                  OFFSET 28.7848 1.52588e-005 0
                  CHANNELS 3 Zrotation Xrotation Yrotation
                  JOINT RightHand
                  {
                    OFFSET 26.5688 1.52588e-005 0
                    CHANNELS 3 Zrotation Xrotation Yrotation
                    End Site
                    {
                      OFFSET 0 0 0
                    }
                  }
                }
              }
            }
            JOINT LeftShoulder
            {
              OFFSET 2.38034 -1.29275 -3.7523
              CHANNELS 3 Zrotation Xrotation Yrotation
              JOINT LeftArm
              {
                OFFSET 16.3182 6.10352e-005 0
                CHANNELS 3 Zrotation Xrotation Yrotation
                JOINT LeftForeArm
                {
                  OFFSET 27.0901 0 0
                  CHANNELS 3 Zrotation Xrotation Yrotation
                  JOINT LeftHand
                  {
                    OFFSET 24.5451 1.52588e-005 0
                    CHANNELS 3 Zrotation Xrotation Yrotation
                    End Site
                    {
                      OFFSET 0 0 0
                    }
                  }
                }
              }
            }
            JOINT Neck
            {
              OFFSET 5.0226 -0.0266342 0
              CHANNELS 3 Zrotation Xrotation Yrotation
              JOINT Head
              {
                OFFSET 6.69363 2.86102e-005 0
                CHANNELS 3 Zrotation Xrotation Yrotation
                End Site
                {
                  OFFSET 0 0 0
                }
              }
            }
          }
        }
      }
    }
  }
}
MOTION
Frames:	18
Frame Time:	0.0416667
248.902 90.3674 254.558 -70.5135 41.8208 -104.613 -169.901 57.6017 84.3362 -54.4574 6.55702 -4.67633 78.7203 7.65077 -3.33081 29.1521 2.18477 -3.29186 -176.48 -6.42813 106.542 -22.9561 -1.94775 -28.8935 9.71879 -53.3863 64.7738 73.8456 -3.98394 -18.3859 2.12196 7.67028 -89.4193 11.5263 4.49321 0.696533 -0.136931 4.51947 0.497696 -22.7242 4.07581 2.01679 -2.71157 4.07582 2.01679 94.0228 -17.5757 -102.772 25.8669 -2.70883 -18.6536 -50.4765 24.2918 -25.9506 12.0509 -8.44614 -65.1459 -88.772 -38.8706 78.1263 -31.6923 39.6698 38.2643 89.9195 -34.2854 -80.7652 6.06745 0.102911 -1.74879 38.7214 -11.6154 -5.26016 -14.0156 -8.83984 3.36115 
241.413 91.5466 247.145 -75.6367 42.3806 -99.9922 -171.159 45.9947 87.1126 -49.1673 9.68604 -4.39211 78.4459 7.54832 -2.82459 24.7156 1.33861 -1.10097 -175.675 -6.23701 110.685 -34.7662 -10.6134 -32.8347 -10.5158 -13.4671 52.4651 65.2201 -3.70987 4.8962 1.84099 7.95827 -89.4946 10.9516 3.89922 0.637549 -0.713528 3.92348 0.465048 -23.2881 3.52714 1.7813 -3.27549 3.52713 1.7813 91.0404 -23.3879 -107.298 27.8326 -11.3399 -10.3018 -67.2331 37.0914 -7.4669 29.243 -18.1827 -67.1878 -89.217 -47.3238 79.3542 -15.8952 36.4622 16.7091 85.4945 -25.8274 -83.8169 10.5998 0.448858 0.413129 35.7502 -11.271 -8.15946 -12.7419 -7.34147 3.34118 
233.974 91.2389 240.95 -80.7028 37.9834 -100.264 -173.373 35.9822 83.0863 -47.2097 9.2697 -3.91042 75.3308 6.87418 -1.06289 26.3874 2.51947 -2.96418 176.739 0.708039 88.2075 -66.985 -17.1534 -10.2162 -4.03549 15.7812 31.7317 63.993 -4.74233 16.3232 0.844773 8.2423 -89.0546 10.368 2.11567 1.69446 -1.30261 2.18819 1.59972 -23.8327 1.50883 2.25174 -3.82001 1.50882 2.25173 89.8007 -28.0022 -107.953 33.4603 -16.499 -2.6519 -52.3637 18.3189 0.549364 7.259 -6.60493 -86.7573 -90.6979 -52.7831 78.3032 -8.63251 32.908 0.507087 81.3744 -19.6204 -85.2614 13.4301 0.342942 -0.0264179 31.8424 -10.6207 -11.7759 -12.0848 -5.58194 3.96148 
227.534 90.6286 234.445 -79.6186 38.8631 -100.691 -171.352 31.9388 84.6883 -52.308 3.83047 -4.50195 85.0484 9.0429 -8.22633 20.6068 6.18774 -6.37281 179.131 21.9824 87.4297 -81.4215 -8.83032 -3.41248 11.3286 16.4908 12.7727 77.7941 -3.45579 31.0147 0.443358 7.96121 -88.886 10.9344 1.39802 2.08242 -0.73737 1.4883 2.01889 -23.2616 0.707723 2.40613 -3.24892 0.70772 2.40614 89.8343 -30.6306 -106.85 40.1165 -16.7429 6.03601 -15.3031 -24.7431 0.513443 -38.7124 22.0149 -71.0022 -91.6348 -54.8024 77.398 -2.78074 33.2006 -17.3602 71.9617 -17.9133 -85.4128 -3.08839 0.28803 -11.5802 26.9146 -8.56483 -14.5123 -10.6095 -3.0592 3.5953 
221.819 89.3183 228.505 -79.6275 39.1043 -101.743 -170.459 26.5059 85.3307 -53.7799 5.67095 -4.70906 87.0745 10.3934 -6.1889 34.4714 7.96823 -13.9442 -177.915 31.6353 86.6729 -95.4921 -3.70059 -2.96327 51.1445 2.97403 -4.24095 64.8032 -4.93655 19.1512 -0.137536 8.01096 -88.7465 10.842 0.305199 2.46458 -0.831179 0.413327 2.44877 -23.3479 -0.449411 2.44242 -3.33527 -0.449388 2.44243 91.6663 -29.7744 -103.517 44.974 -11.5172 14.6824 -7.84722 -38.4603 -8.63434 -44.6832 9.67786 -39.4225 -91.7929 -53.1313 76.7959 5.55581 29.2032 -41.0021 68.6964 -16.3209 -85.4698 -14.4943 1.52166 -19.4662 26.8362 -5.98932 -14.637 -9.73508 -0.382847 1.84003 
215.246 87.3595 221.839 -82.0739 37.2108 -98.5768 -170.882 19.0976 89.1454 -55.8842 7.53651 -3.78509 95.6773 12.6291 -8.51898 33.523 6.91656 -11.8619 -177.123 36.35 86.7068 -98.067 -7.2409 -2.29093 77.937 -10.7015 -9.9 30.2766 -3.84556 8.86908 -1.09309 7.94584 -88.7903 10.9973 -1.61609 2.54163 -0.675266 -1.50269 2.61023 -23.2041 -2.30489 1.93882 -3.19149 -2.30489 1.93882 92.6185 -29.8554 -101.444 42.3937 -2.43971 23.5355 -60.6908 -77.9884 -71.1802 -37.6594 -4.1626 -11.3297 -91.6538 -46.7907 75.5189 4.64213 20.2883 -51.3316 73.0291 -17.0037 -86.829 -1.60892 -0.0931947 -10.7206 22.7515 -2.74233 -17.0791 -9.11901 2.71474 3.37955 
207.632 87.5495 214.255 -82.6989 36.8381 -94.2954 -170.608 8.8618 95.7838 -49.5496 11.3871 -2.56815 95.3237 13.3069 -6.01066 38.9005 4.77165 -10.6998 -178.132 44.8362 89.7041 -92.6978 -2.33105 -1.85705 83.8053 -12.9324 -4.91585 13.8633 -2.96521 7.70718 -2.24901 7.73075 -88.8053 11.5394 -3.91684 2.70943 -0.12767 -3.79371 2.87925 -22.7116 -4.55021 1.4053 -2.69896 -4.55022 1.4053 90.0112 -32.5443 -105.678 40.3917 -3.09828 34.1928 -23.5634 -36.0292 -44.2347 -26.9304 1.05934 -20.8373 -87.7914 -35.0515 78.9145 -0.983956 8.88755 -52.7288 75.3281 -19.2691 -90.9587 5.65891 0.13604 -0.451976 20.5189 1.85511 -21.8516 -11.6916 8.07361 5.56131 
199.301 89.1927 206.067 -83.4244 38.0146 -90.7014 -169.803 -3.43801 99.5324 -36.1347 16.2119 -1.0022 82.5054 10.3674 1.97621 51.763 3.03538 -13.0903 179.888 49.8815 93.6755 -81.2874 1.7593 -1.50378 81.6108 -11.2597 -3.57675 13.8897 -2.1999 6.48163 -2.52691 8.02129 -90.0258 10.8396 -5.04314 0.428443 -0.821817 -5.01938 0.650529 -23.4323 -4.93812 -1.11084 -3.41961 -4.93813 -1.11084 95.4437 -19.3289 -98.6652 39.8623 -0.851574 37.3956 -40.6323 -46.9577 -58.4102 -21.2572 -1.36492 -17.8795 -87.8364 -31.2547 77.8203 -3.67811 0.659968 -60.0523 70.143 -17.3836 -92.8585 7.81452 0.182991 -1.1307 24.1205 6.80753 -8.53516 -12.0664 9.57442 0.0891609 
190.61 91.0802 197.695 -83.6333 39.6208 -87.917 -169.376 -14.4025 101.015 -23.4942 17.8189 0.996961 61.4041 1.41765 4.77257 61.1675 0.0976268 -10.7463 178.505 50.6807 96.8981 -64.8442 0.620485 -0.986787 76.0352 -8.17878 -3.09266 16.0648 -1.91789 5.82819 -3.0413 7.98126 -90.4228 10.9173 -6.25057 -0.250737 -0.738518 -6.25552 0.0256951 -23.3843 -5.88523 -2.12424 -3.37164 -5.88524 -2.12424 94.1269 -17.8563 -102.4 36.665 1.63865 44.0666 -31.1559 -36.682 -53.4186 -25.9639 -0.392407 -16.9526 -84.9344 -22.1293 81.1965 -9.57051 -2.02508 -56.0139 67.3662 -18.5105 -95.7503 11.2417 0.367656 -0.532903 27.5674 9.95782 -9.04953 -18.2987 12.6307 2.70793 
181.582 92.4556 189.023 -83.3151 42.4755 -85.9194 -170.676 -20.202 100.057 -21.5014 13.2951 3.33459 51.0933 -3.52882 3.49455 33.9096 6.10355 -10.9155 179.067 47.5644 99.0278 -45.7963 -8.67627 -0.693223 73.456 -7.23814 -2.34022 16.3391 -0.599926 3.44416 -3.05802 7.95806 -90.9225 10.9341 -6.51486 -1.21866 -0.720775 -6.56217 -0.929537 -23.3623 -5.84656 -3.1263 -3.34966 -5.84658 -3.1263 93.8252 -16.1297 -103.878 34.8334 1.53049 49.2639 -29.9439 -33.3961 -53.8391 -24.0103 0.223256 -20.3964 -84.4051 -17.7359 81.1777 -11.4116 -3.21105 -52.7226 67.8073 -19.129 -96.3355 8.64433 0.0228507 -3.11514 28.3372 13.0147 -5.11356 -20.3434 14.0348 2.86819 
173.327 92.4233 180.906 -83.1351 44.3691 -86.0399 -170.261 -20.4304 98.9063 -29.6603 19.3357 2.60518 52.3187 -3.13346 5.66982 25.8187 5.30712 -6.72994 179.504 44.4059 99.4285 -32.1012 -18.7819 -0.5183 71.7522 -6.67997 -3.92538 18.2075 -1.57431 5.0161 -2.9691 7.91308 -91.0987 11.0128 -6.41955 -1.57276 -0.64287 -6.48252 -1.28759 -23.2745 -5.64946 -3.43449 -3.26188 -5.64946 -3.43449 93.4756 -17.1211 -104.324 33.1734 1.40985 51.0616 -29.6378 -33.3512 -53.8377 -27.719 0.666479 -20.5848 -84.082 -16.777 81.6689 -9.70519 0.399248 -50.5136 67.1414 -18.5964 -95.0819 6.01581 -0.0859757 -4.90222 27.9724 14.5168 -3.1367 -19.2146 14.6647 3.36978 
165.813 91.0943 173.185 -85.998 45.4011 -86.0092 -169.348 -18.609 97.2015 -44.6704 20.0625 1.40705 54.2151 -2.04103 3.92621 33.6463 5.08381 -9.12431 178.293 40.6155 99.2002 -29.6043 -13.3185 0.0156152 73.7593 -7.74583 -2.93627 15.2188 -2.11028 6.27667 -2.78928 7.96268 -90.9028 10.9259 -5.97076 -1.2313 -0.73168 -6.01913 -0.966422 -23.3544 -5.32404 -2.9733 -3.34171 -5.32405 -2.97329 93.2256 -20.2762 -103.627 32.1376 2.48541 48.0586 -27.6948 -34.904 -51.3197 -28.6969 0.443196 -18.9521 -85.3521 -22.235 80.3091 -4.74399 6.69666 -46.7358 68.3973 -17.5866 -92.495 4.50747 -0.0545978 -3.86867 25.4981 14.7535 -0.920052 -17.4303 14.2606 2.28356 
158.297 90.2402 165.422 -90.6879 46.05 -83.706 -167.027 -13.5289 97.5049 -62.468 14.8038 0.755136 52.6736 -2.77505 5.44636 33.5397 5.65548 -9.9148 175.918 36.0542 99.2574 -34.4821 -11.099 1.15035 68.9683 -4.809 -3.26627 23.5812 -0.537448 2.24174 -2.51525 8.11729 -90.7494 10.6229 -5.35401 -1.00484 -1.03723 -5.39306 -0.767565 -23.6441 -4.80402 -2.57082 -3.63144 -4.80403 -2.57082 91.9072 -22.7564 -105.628 31.7991 6.84143 44.0584 -27.561 -35.3947 -51.2077 -31.2976 0.197013 -16.686 -87.1849 -30.5098 78.8431 0.279983 13.5506 -41.2047 69.0249 -16.2032 -89.362 3.3566 -0.107799 -4.71497 21.3307 14.6067 1.78002 -14.3896 13.4501 1.25062 
151.307 89.3623 157.575 -92.9156 45.3992 -80.9989 -164.558 -3.88307 100.888 -79.3194 4.68537 2.0769 56.4522 -0.769176 6.49901 33.5183 4.93403 -8.77423 172.37 34.7777 100.549 -45.0723 -14.1033 3.48169 66.5842 -3.32952 -6.09801 6.19828 -0.562736 4.63957 -2.19074 8.19 -90.9919 10.4674 -4.81892 -1.54428 -1.19522 -4.88219 -1.33026 -23.7794 -4.13184 -2.92293 -3.7667 -4.13182 -2.92292 91.632 -26.9569 -104.567 30.422 8.72474 36.7148 -27.549 -31.4264 -51.3929 -29.4121 0.882722 -19.4827 -88.1266 -38.8743 79.2286 2.9276 20.8296 -36.2274 68.8655 -11.6888 -85.5969 6.88388 0.0735519 -2.3218 17.8687 13.7668 4.85601 -11.335 11.8822 1.0466 
145.19 87.6563 150.154 -94.616 45.8897 -75.8828 -164.68 10.4658 103.928 -94.9343 -2.80138 4.69141 63.1096 2.02606 6.38038 33.492 5.85594 -10.2114 170.814 30.8388 105.133 -54.7744 -13.3999 4.39201 76.9025 -9.65681 -7.60279 13.9588 -2.40677 6.79898 -1.56614 8.35879 -91.6181 10.1006 -3.85756 -2.89233 -1.56745 -3.98108 -2.71969 -24.1042 -2.81064 -3.91743 -4.09159 -2.81063 -3.91743 92.5786 -28.1764 -102.204 32.0952 8.82982 24.206 -28.6283 -30.9129 -55.189 -31.2729 0.247878 -15.969 -89.7706 -47.0463 78.4366 3.33035 25.3029 -28.03 72.2318 -7.27271 -83.3531 3.98106 -0.190066 -6.28118 17.3564 12.8588 8.04804 -10.003 10.1605 0.357225 
139.011 86.2998 143.068 -96.794 47.0754 -71.303 -168.407 24.827 105.739 -104.264 0.272994 6.47777 66.5286 3.61982 10.928 30.6149 7.95129 -12.25 171.886 23.876 107.7 -58.5831 -12.813 4.46524 85.8222 -14.6734 -7.08893 13.5422 -2.1052 6.34626 -0.851113 8.58525 -91.9052 9.64903 -2.55719 -3.57889 -2.02405 -2.71212 -3.46301 -24.5267 -1.36449 -4.18099 -4.51406 -1.36448 -4.18099 92.1148 -30.9786 -102.226 32.4913 8.29137 10.3486 -29.2922 -27.7593 -57.6052 -33.7435 0.172438 -14.1989 -90.109 -47.7855 78.0748 -3.79897 26.4495 -14.0526 75.7866 -6.26421 -83.6553 2.15395 -0.189364 -6.85678 19.0115 10.972 6.5237 -10.9099 8.62016 0.650471 
131.903 85.1477 135.866 -97.3439 47.6905 -72.0953 -172.718 36.8802 103.049 -105.374 1.24976 6.69831 70.9697 5.83842 10.5942 30.0436 8.85193 -13.3429 173.349 16.3656 105.547 -60.7356 -11.7453 3.55309 95.3491 -18.8469 -4.50607 15.0935 -1.66772 5.46826 -0.404667 8.49693 -91.7817 9.8433 -1.61424 -3.40541 -1.8309 -1.76247 -3.33118 -24.3317 -0.516952 -3.73265 -4.319 -0.516951 -3.73266 92.1694 -28.7824 -102.831 34.2816 3.99746 -0.912734 -28.95 -24.2453 -61.4365 -34.261 0.270538 -13.7618 -88.6864 -47.5572 80.2113 -11.2021 28.0253 1.81525 73.4623 -8.65603 -83.6972 4.18944 -0.269278 -7.48744 17.9911 8.96625 6.01205 -10.6911 6.87319 0.82945 
124.344 85.2274 128.307 -95.7151 49.4054 -76.0125 -174.641 46.5041 99.1315 -97.5407 -2.55449 5.64362 75.0199 7.53108 8.29027 30.9687 9.12052 -14.1483 174.286 7.54958 101.524 -56.9349 -13.4789 2.1471 99.6629 -21.0445 -4.27448 17.7959 -2.02756 5.90341 0.339756 8.09617 -91.3561 10.6755 0.0521452 -2.70219 -0.998295 -0.0667675 -2.70187 -23.5122 0.8616 -2.56179 -3.49956 0.861602 -2.56178 92.0403 -27.8626 -103.413 32.6777 0.0576607 -8.16402 -31.1113 -21.6919 -66.1679 -34.8684 0.932256 -16.1563 -87.3731 -46.2097 81.992 -16.3192 32.1797 16.106 74.8821 -13.5529 -83.8076 3.9728 -0.226962 -6.83329 15.2658 5.49515 3.89191 -9.4266 4.23046 0.89786 
